# xmcd
#
# Track frame offsets:
#	179
#	11660
#	25641
#	39747
#	50528
#	61655
#	75778
#	93439
#	106093
#	116124
#	125551
#	139668
#
# Disc length: 2043 seconds
# Revision: 1
# Processed by: cddbd v1.5.2PL0 Copyright (c) Steve Scherf et al.
# Submitted via: dBpowerAMP V12.0
#
DISCID=8e07f90c
DTITLE=Johnny Cash - Complete Columbia Album Collection, Disc 35 [Pa Osteraker]
DYEAR=1973
DGENRE=Country
TTITLE0=Orleans Parish Prison
TTITLE1=Jacob Green
TTITLE2=Me and Bobby McGee
TTITLE3=The Prisoners Song
TTITLE4=The Invertebraes
TTITLE5=Silver Haired Daddy of Mine
TTITLE6=City Jail
TTITLE7=Life of a Prisoner
TTITLE8=Looking Back in Anger
TTITLE9=Nobody Cared
TTITLE10=Help Me Make It Through the Night
TTITLE11=I Saw a Man
EXTD=
EXTT0=
EXTT1=
EXTT2=
EXTT3=
EXTT4=
EXTT5=
EXTT6=
EXTT7=
EXTT8=
EXTT9=
EXTT10=
EXTT11=
PLAYORDER=
